<svg version="1.1" xmlns="http://www.w3.org/2000/svg" xmlns:xlink="http://www.w3.org/1999/xlink" width="50px" height="50px" viewBox="0,0,256,256"><defs><clipPath id="clip-1"><path d="M0,256v-256h256v256zM104.87413,213.94578c-3.89266,8.61915 -3.16855,18.48466 1.93975,26.39726c5.15218,7.96965 13.76695,12.73125 23.04439,12.73125h67.97458c9.32571,0 17.90976,-4.69138 22.96101,-12.55131c5.1829,-8.05742 5.92896,-18.01509 1.98363,-26.66057c-5.51643,-12.05102 -15.21079,-21.71026 -27.23547,-27.87182c3.51963,-6.0299 5.58665,-13.09989 5.58665,-20.68773c0,-21.77609 -16.73362,-39.49714 -37.30286,-39.49714c-20.56923,0 -37.30286,17.72105 -37.30286,39.49714c0,7.59662 2.07141,14.67538 5.59543,20.70528c-12.0203,6.17472 -21.71465,15.84713 -27.24425,27.93765z" id="overlayBgMask" fill="none"></path></clipPath><clipPath id="clip-2"><path d="M0,256v-256h256v208.84241c-5.71922,-9.72208 -14.31285,-17.57139 -24.61799,-22.85183c3.51963,-6.0299 5.58665,-13.09989 5.58665,-20.68773c0,-21.77609 -16.73362,-39.49714 -37.30286,-39.49714c-20.56923,0 -37.30286,17.72105 -37.30286,39.49714c0,7.59662 2.07141,14.67538 5.59543,20.70528c-12.0203,6.17472 -21.71465,15.84713 -27.24425,27.93765c-3.89266,8.61915 -3.16855,18.48466 1.93975,26.39726c5.15218,7.96965 13.76695,12.73125 23.04439,12.73125h67.97458c8.94632,0 17.21008,-4.31743 22.32715,-11.60785v14.53357z" id="clip-1" fill="none"></path></clipPath></defs><g clip-path="url(#clip-1)" fill="none" fill-rule="nonzero" stroke="none" stroke-width="1" stroke-linecap="butt" stroke-linejoin="miter" stroke-miterlimit="10" stroke-dasharray="" stroke-dashoffset="0" font-family="none" font-weight="none" font-size="none" text-anchor="none" style="mix-blend-mode: normal"><g transform="translate(0,0)"><g clip-path="url(#clip-2)"><g transform="translate(-0.00497,0.00703)" fill="#ffffff"><g><g transform="scale(5.12,5.12)"><path d="M12.125,1.99805c-0.43898,0.01834 -0.81457,0.32104 -0.92578,0.74609l-9.16602,34.83203c-0.06779,0.25668 -0.03074,0.52977 0.10298,0.75911c0.13372,0.22934 0.35314,0.3961 0.60991,0.46354l34.83398,9.16797c0.25668,0.06779 0.52977,0.03074 0.75911,-0.10298c0.22934,-0.13372 0.3961,-0.35314 0.46354,-0.60991l9.16602,-34.83398c0.06779,-0.25668 0.03074,-0.52977 -0.10298,-0.75911c-0.13372,-0.22934 -0.35314,-0.3961 -0.60991,-0.46354l-34.83398,-9.16602c-0.09674,-0.02587 -0.19681,-0.03706 -0.29687,-0.0332zM21.5,19l9.5,2.5l-2.5,9.5l-9.5,-2.5z"></path></g></g></g></g><g fill="#ffffff"><g transform="translate(153.59934,143.36) scale(4.38857,4.38857)" id="overlay"><path d="M10.5,10c-2.476,0 -4.5,-2.242 -4.5,-5c0,-2.758 2.024,-5 4.5,-5c2.476,0 4.5,2.242 4.5,5c0,2.758 -2.024,5 -4.5,5z"></path><path d="M18.249,21h-15.489c-1.49,0 -2.783,-1.64 -2.047,-3.27c1.594,-3.485 5.443,-5.73 9.792,-5.73c4.349,0 8.198,2.245 9.792,5.73c0.65,1.425 -0.321,3.27 -2.048,3.27z"></path></g></g></g></g><g fill="none" fill-rule="nonzero" stroke="none" stroke-width="none" stroke-linecap="butt" stroke-linejoin="miter" stroke-miterlimit="10" stroke-dasharray="" stroke-dashoffset="0" font-family="none" font-weight="none" font-size="none" text-anchor="none" style="mix-blend-mode: normal"><g transform="translate(117.75934,143.36) scale(4.38857,4.38857)" id="overlay" fill="#ffffff" stroke="none" stroke-width="1"><path d="M10.5,10c-2.476,0 -4.5,-2.242 -4.5,-5c0,-2.758 2.024,-5 4.5,-5c2.476,0 4.5,2.242 4.5,5c0,2.758 -2.024,5 -4.5,5z"></path><path d="M18.249,21h-15.489c-1.49,0 -2.783,-1.64 -2.047,-3.27c1.594,-3.485 5.443,-5.73 9.792,-5.73c4.349,0 8.198,2.245 9.792,5.73c0.65,1.425 -0.321,3.27 -2.048,3.27z"></path></g></g></svg>