<svg width="150" height="58" viewBox="0 0 150 58" fill="none" xmlns="http://www.w3.org/2000/svg">
<path d="M0 57.5V0H143V42H150V57.5H0Z" fill="#0A0A0A"/>
<path d="M47 2.5H3V54.5H17.4138V27.9222L32 27.9222L33.5 18.3889L17.4138 18.3889V16.3667H47V2.5Z" fill="white"/>
<path d="M19.5 54.5V30H32V46.9419H47V54.5H19.5Z" fill="white"/>
<path d="M48.8421 44.6778H34V27.9222L35.5 18.3889L47 18.3889L46.0602 27.9222V37.7444H48.8421V2.5H59.3684V37.7444H62V44.6778H59.3684V54.5H48.8421V44.6778Z" fill="white"/>
<path d="M61 46.4111V54.5H71.4694V43.5222L74.1837 51.3222H86.2041L88.9184 43.5222V54.5H99V2.5H86.9796L80.3878 28.2111L73.0204 2.5H61V36.3L63.5 36.3V46.4111L61 46.4111Z" fill="white"/>
<path fill-rule="evenodd" clip-rule="evenodd" d="M101.175 54.6053V27.3947H125.518V40.1316L121.144 43.3158H117.712L123.236 54.6053H114.487L109.344 43.3158V54.6053H101.175ZM109 33.5V36.5H116.241L118 35.4091V33.5H109Z" fill="white"/>
<path d="M109.828 25.5H101L107.218 14L101 2.5H109.662L112.317 7.64015L115.183 2.5H124L117.052 14L124 25.5H114.608L112.317 21.1614L109.828 25.5Z" fill="white"/>
<path d="M120.771 45.2556L125.216 54.5H147V45.2556H139.671V2.5H127.329L120 14.0556L125.014 21.5667L127.513 20.4111V45.2556H120.771Z" fill="white"/>
</svg>
